<svg width="16" height="16" viewBox="0 0 16 16" fill="none" xmlns="http://www.w3.org/2000/svg">
<path fill-rule="evenodd" clip-rule="evenodd" d="M16 8.03999C16 14.5 14.5 16 7.99077 16C1.48155 16 0 14.5 0 8.02153V8.00923C0 1.5 1.46924 0 7.98462 0C14.5 0 16 1.5 16 7.99077V8.03999ZM6.6207 3H6.48301C6.30319 3.01693 6.14076 3.07305 5.9957 3.16836C5.69512 3.36621 5.45098 3.74004 5.46113 4.10313C5.46699 4.30899 5.56309 4.44382 5.74941 4.50762C5.78326 4.51925 5.82338 4.52414 5.86368 4.52904C5.90594 4.53418 5.94839 4.53935 5.98398 4.55235C6.2582 4.65235 6.21992 5.06192 5.92285 5.11348C5.87103 5.12247 5.8194 5.12299 5.76797 5.11504C5.35117 5.05046 5.07018 4.82058 4.925 4.42539C4.92305 4.41993 4.91914 4.417 4.91328 4.41661C4.29746 4.37442 3.78691 4.79786 3.70801 5.40645C3.64824 5.86543 3.9543 6.25586 4.4127 6.29649C4.50449 6.30469 4.56133 6.31316 4.5832 6.32188C4.79805 6.40684 4.80937 6.70997 4.62773 6.8377C4.58646 6.86674 4.54518 6.88158 4.50391 6.88223C4.45247 6.88308 4.40078 6.88278 4.34898 6.88247C4.16278 6.88137 3.97509 6.88025 3.79219 6.93282C3.32246 7.06817 3.0373 7.45333 3 7.9463V8.05645C3.03398 8.65723 3.47031 9.09005 4.07129 9.12012C4.14421 9.12364 4.24661 9.12501 4.37852 9.12423C4.47773 9.12371 4.5472 9.13217 4.58691 9.14962C4.86582 9.27247 4.7873 9.69845 4.46172 9.70763C4.1168 9.7172 3.81133 9.94454 3.72656 10.2775C3.63867 10.6223 3.77734 11.0174 4.02637 11.2656C4.26478 11.5031 4.56009 11.6118 4.9123 11.5916C4.91816 11.5914 4.92207 11.5885 4.92402 11.583C5.0752 11.174 5.36966 10.9432 5.80742 10.8904C5.90247 10.879 5.98346 10.898 6.05039 10.9475C6.23281 11.0824 6.2002 11.3633 5.99219 11.4512C5.95288 11.4678 5.91021 11.4713 5.86715 11.4749C5.82398 11.4786 5.78042 11.4822 5.73945 11.499C5.53997 11.5811 5.45026 11.7378 5.47031 11.9693C5.52148 12.5594 5.94668 12.9625 6.52832 13H6.6375C7.15137 12.9701 7.56426 12.6408 7.67383 12.1336C7.6918 12.0511 7.70104 11.9214 7.70156 11.7447C7.70365 11.0907 7.70371 10.4365 7.70176 9.78224C7.6998 9.07559 6.72715 8.95723 6.54297 9.62774C6.53411 9.65996 6.53131 9.69816 6.52851 9.73633C6.5254 9.77892 6.52228 9.82148 6.51074 9.85567C6.425 10.1082 6.07598 10.1387 5.96406 9.89005C5.94622 9.85033 5.9377 9.79662 5.93848 9.72892C5.94492 9.16134 6.39258 8.70157 6.93574 8.6086C7.19902 8.56355 7.45208 8.60971 7.69492 8.74708L7.69751 8.74773L7.69886 8.74754L7.70009 8.74703L7.70144 8.74592L7.70273 8.74259V7.26778C7.70273 7.26036 7.69954 7.25847 7.69316 7.26212C7.37695 7.44102 7.02695 7.46114 6.69082 7.33047C6.26504 7.16505 5.9502 6.75782 5.93867 6.29141C5.93685 6.21511 5.94635 6.15456 5.96719 6.10977C6.07305 5.88243 6.40703 5.89747 6.50137 6.12715C6.51811 6.16774 6.52418 6.22117 6.52996 6.27212C6.53181 6.28834 6.53362 6.30431 6.53574 6.31954C6.62109 6.93887 7.49473 7.00723 7.67285 6.42071C7.69251 6.35626 7.70241 6.24909 7.70254 6.09922C7.70293 5.4405 7.70261 4.78171 7.70156 4.12286C7.70137 3.91856 7.65176 3.72891 7.54531 3.55176C7.34323 3.21543 7.03503 3.03151 6.6207 3ZM9.46817 6.00626C9.75215 5.7215 9.95951 5.51375 10.0902 5.38302C10.0952 5.37807 10.1008 5.37703 10.1072 5.3799C10.4038 5.51518 10.6898 5.50379 10.965 5.34572C11.5895 4.98693 11.5793 4.1047 10.9604 3.74689C10.8519 3.68413 10.7375 3.64656 10.6172 3.63419C10.1967 3.59064 9.83867 3.80743 9.66738 4.18126C9.55527 4.42618 9.55846 4.68335 9.67695 4.95275C9.67995 4.95952 9.67884 4.96551 9.67363 4.97072L9.13887 5.50529C9.1334 5.51076 9.12676 5.51349 9.11895 5.51349H8.29648C8.29154 5.51349 8.28906 5.51596 8.28906 5.52091L8.28926 6.09064C8.28926 6.09307 8.2902 6.09541 8.29189 6.09713C8.29357 6.09885 8.29586 6.09982 8.29824 6.09982C8.61348 6.09956 8.9291 6.09865 9.24512 6.09708C9.33392 6.09656 9.40827 6.06629 9.46817 6.00626ZM13 6.78028V6.71778C12.9775 6.34356 12.7756 6.042 12.4346 5.90118C12.0088 5.7254 11.5428 5.87833 11.2992 6.25684C11.2631 6.31309 11.2352 6.38028 11.2092 6.44493C11.2066 6.45118 11.2019 6.4543 11.1951 6.4543C10.9689 6.4543 10.7427 6.45463 10.5164 6.45528C10.4301 6.45541 10.3615 6.48093 10.3107 6.53184C10.13 6.7127 9.94863 6.89389 9.7666 7.0754C9.76152 7.08047 9.75547 7.08301 9.74844 7.08301L8.30039 7.08282C8.29284 7.08282 8.28906 7.08659 8.28906 7.09415L8.28926 7.65801C8.28926 7.66492 8.29264 7.66837 8.29941 7.66837C8.81712 7.66954 9.33483 7.66947 9.85254 7.66817C9.95742 7.66798 10.0246 7.64493 10.0947 7.5752C10.271 7.40007 10.4473 7.22435 10.6236 7.04805C10.6275 7.04402 10.6323 7.042 10.6379 7.042H11.1973C11.203 7.042 11.2069 7.04473 11.209 7.0502C11.3247 7.35606 11.5301 7.54942 11.8252 7.63028C12.0508 7.692 12.3135 7.6668 12.5176 7.55684C12.8154 7.39656 12.9762 7.1377 13 6.78028ZM13 9.29474V9.22072C12.9205 8.20255 11.5875 8.00822 11.2064 8.95802C11.204 8.96414 11.1995 8.9672 11.193 8.9672H10.6406C10.6339 8.9672 10.6273 8.96446 10.6225 8.95959C10.458 8.79461 10.2933 8.6299 10.1283 8.46544C10.051 8.38849 9.98672 8.33947 9.88438 8.33869C9.64167 8.33686 9.11283 8.33699 8.29785 8.33908C8.29199 8.33908 8.28906 8.342 8.28906 8.34786L8.28926 8.91525C8.28926 8.92254 8.29284 8.92619 8.3 8.92619L9.74824 8.92599C9.75514 8.92599 9.761 8.9284 9.76582 8.93322C9.94434 9.11004 10.1229 9.2868 10.3014 9.46349C10.3631 9.52456 10.4391 9.55444 10.5295 9.55314C10.6317 9.55184 10.854 9.5521 11.1963 9.55392C11.2028 9.55392 11.2072 9.55698 11.2094 9.5631C11.5678 10.5135 12.9395 10.3084 13 9.29474ZM9.13926 10.5035L9.67598 11.0399C9.68105 11.0451 9.68203 11.051 9.67891 11.0576C9.41426 11.6108 9.76797 12.3008 10.3879 12.3715C11.0486 12.4471 11.5496 11.874 11.3965 11.2326C11.3021 10.8375 10.9922 10.5824 10.5826 10.5428C10.4146 10.5265 10.2564 10.5556 10.1078 10.6301C10.1053 10.6313 10.1025 10.6318 10.0997 10.6313C10.097 10.6309 10.0944 10.6295 10.0924 10.6276C9.89499 10.4291 9.69753 10.2316 9.5 10.035C9.41699 9.95236 9.35645 9.90978 9.24512 9.90939C8.92988 9.90848 8.61445 9.90854 8.29883 9.90958C8.29232 9.90958 8.28906 9.91277 8.28906 9.91915V10.4858C8.28906 10.4919 8.29212 10.4949 8.29824 10.4949H9.11836C9.12656 10.4949 9.13353 10.4978 9.13926 10.5035Z" fill="white"/>
</svg>
