<svg width="20" height="20" viewBox="0 0 20 20" fill="none" xmlns="http://www.w3.org/2000/svg">
    <path d="M8.12 2.212a8.436 8.436 0 0 1 3.761.002.816.816 0 0 1 .418.24c.11.12.178.27.197.428l.14 1.229c.025.22.13.424.296.576a.987.987 0 0 0 1.06.174l1.172-.492a.83.83 0 0 1 .919.179 8.077 8.077 0 0 1 1.881 3.111.746.746 0 0 1-.004.472.78.78 0 0 1-.288.382l-1.04.736a.943.943 0 0 0-.295.33.9.9 0 0 0 0 .845c.07.13.17.244.295.33l1.037.735a.78.78 0 0 1 .288.383.747.747 0 0 1 .004.472 8.062 8.062 0 0 1-1.883 3.111.816.816 0 0 1-.428.23.84.84 0 0 1-.487-.05l-1.17-.494a.999.999 0 0 0-1.037.16.923.923 0 0 0-.317.595l-.142 1.224a.76.76 0 0 1-.2.432.815.815 0 0 1-.426.24c-.612.131-1.236.201-1.864.208a9.519 9.519 0 0 1-1.876-.208.815.815 0 0 1-.425-.24.76.76 0 0 1-.201-.43l-.142-1.226a.926.926 0 0 0-.32-.595 1.08 1.08 0 0 0-.655-.24.993.993 0 0 0-.385.078l-1.168.494a.84.84 0 0 1-.917-.18 8.072 8.072 0 0 1-1.881-3.11.746.746 0 0 1 .004-.473.779.779 0 0 1 .288-.383l1.037-.734a.936.936 0 0 0 .37-.537.903.903 0 0 0-.077-.638.946.946 0 0 0-.292-.332L2.328 8.51a.778.778 0 0 1-.288-.382.746.746 0 0 1-.004-.472 8.063 8.063 0 0 1 1.881-3.113.836.836 0 0 1 .915-.182l1.176.496a.99.99 0 0 0 .384.077h.004a1 1 0 0 0 .648-.238.923.923 0 0 0 .32-.591l.14-1.223a.761.761 0 0 1 .198-.428.816.816 0 0 1 .419-.242zM10 7.5c-.691 0-1.354.263-1.843.732A2.45 2.45 0 0 0 7.393 10c0 .663.275 1.299.764 1.768A2.665 2.665 0 0 0 10 12.5c.691 0 1.354-.263 1.843-.732A2.45 2.45 0 0 0 12.607 10a2.45 2.45 0 0 0-.764-1.768A2.665 2.665 0 0 0 10 7.5z" fill="#A8918A"/>
</svg>
