<svg width="256" height="256" viewBox="0 0 256 256" fill="none" xmlns="http://www.w3.org/2000/svg">
<g clip-path="url(#clip0_50_188)">
<rect width="256" height="256" fill="#F2470D"/>
<path fill-rule="evenodd" clip-rule="evenodd" d="M105.931 48H103.728C100.851 48.2708 98.2521 49.1688 95.9313 50.6938C91.1219 53.8594 87.2156 59.8406 87.3781 65.65C87.4719 68.9438 89.0094 71.1011 91.9906 72.1219C92.5321 72.308 93.1741 72.3861 93.8188 72.4646C94.495 72.5469 95.1743 72.6296 95.7438 72.8375C100.131 74.4375 99.5187 80.9907 94.7656 81.8157C93.9365 81.9594 93.1104 81.9677 92.2875 81.8407C85.6187 80.8073 81.1229 77.1292 78.8 70.8063C78.7688 70.7188 78.7062 70.6719 78.6125 70.6656C68.7594 69.9906 60.5906 76.7656 59.3281 86.5032C58.3719 93.8469 63.2688 100.094 70.6031 100.744C72.0719 100.875 72.9813 101.01 73.3313 101.15C76.7688 102.509 76.95 107.359 74.0437 109.403C73.3833 109.868 72.7229 110.105 72.0625 110.116C71.2395 110.129 70.4125 110.124 69.5837 110.119C66.6045 110.102 63.6015 110.084 60.675 110.925C53.1594 113.091 48.5969 119.253 48 127.141V128.903C48.5437 138.516 55.525 145.441 65.1406 145.922C66.3073 145.978 67.9458 146 70.0563 145.988C71.6438 145.979 72.7552 146.115 73.3906 146.394C77.8531 148.359 76.5969 155.175 71.3875 155.322C65.8688 155.475 60.9813 159.113 59.625 164.441C58.2188 169.956 60.4375 176.278 64.4219 180.25C68.2365 184.05 72.9615 185.789 78.5969 185.466C78.6906 185.462 78.7531 185.416 78.7844 185.328C81.2031 178.784 85.9146 175.091 92.9187 174.247C94.4396 174.064 95.7354 174.368 96.8063 175.159C99.725 177.319 99.2031 181.813 95.875 183.219C95.2461 183.484 94.5634 183.541 93.8744 183.599C93.1837 183.657 92.4867 183.715 91.8313 183.984C88.6396 185.297 87.2042 187.805 87.525 191.509C88.3438 200.95 95.1469 207.4 104.453 208H106.2C114.422 207.522 121.028 202.253 122.781 194.138C123.069 192.817 123.217 190.743 123.225 187.916C123.258 177.451 123.259 166.984 123.228 156.516C123.197 145.209 107.634 143.316 104.688 154.044C104.546 154.559 104.501 155.17 104.456 155.781C104.406 156.463 104.356 157.144 104.172 157.691C102.8 161.731 97.2156 162.219 95.425 158.241C95.1396 157.605 95.0031 156.746 95.0156 155.663C95.1188 146.581 102.281 139.225 110.972 137.738C115.184 137.017 119.233 137.755 123.119 139.953L123.16 139.964L123.182 139.961L123.201 139.952L123.223 139.935L123.232 139.922L123.244 139.881V116.284C123.244 116.166 123.193 116.135 123.091 116.194C118.031 119.056 112.431 119.378 107.053 117.288C100.241 114.641 95.2031 108.125 95.0188 100.663C94.9896 99.4417 95.1417 98.473 95.475 97.7563C97.1687 94.1188 102.512 94.3594 104.022 98.0344C104.29 98.6838 104.387 99.5387 104.479 100.354C104.509 100.613 104.538 100.869 104.572 101.113C105.938 111.022 119.916 112.116 122.766 102.731C123.08 101.7 123.239 99.9855 123.241 97.5875C123.247 87.048 123.242 76.5073 123.225 65.9656C123.222 62.6969 122.428 59.6625 120.725 56.8281C117.492 51.4469 112.56 48.5042 105.931 48ZM151.491 96.1002C156.034 91.5439 159.352 88.22 161.444 86.1283C161.523 86.0491 161.614 86.0325 161.716 86.0783C166.461 88.2429 171.036 88.0606 175.441 85.5314C185.431 79.7908 185.269 65.6752 175.366 59.9502C173.63 58.946 171.8 58.345 169.875 58.147C163.147 57.4502 157.419 60.9189 154.678 66.9002C152.884 70.8189 152.935 74.9335 154.831 79.2439C154.879 79.3523 154.861 79.4481 154.778 79.5314L146.222 88.0846C146.134 88.1721 146.028 88.2158 145.903 88.2158H132.744C132.665 88.2158 132.625 88.2554 132.625 88.3346L132.628 97.4502C132.628 97.4892 132.643 97.5265 132.67 97.5541C132.697 97.5816 132.734 97.5971 132.772 97.5971C137.816 97.5929 142.866 97.5783 147.922 97.5533C149.343 97.545 150.532 97.0606 151.491 96.1002ZM208 108.484V107.484C207.641 101.497 204.409 96.6719 198.953 94.4188C192.141 91.6063 184.684 94.0532 180.788 100.109C180.209 101.009 179.762 102.084 179.347 103.119C179.305 103.219 179.23 103.269 179.122 103.269C175.503 103.269 171.883 103.274 168.262 103.284C166.881 103.287 165.784 103.695 164.972 104.509C162.08 107.403 159.178 110.302 156.266 113.206C156.184 113.288 156.087 113.328 155.975 113.328L132.806 113.325C132.685 113.325 132.625 113.385 132.625 113.506L132.628 122.528C132.628 122.639 132.682 122.694 132.791 122.694C141.074 122.713 149.357 122.712 157.641 122.691C159.319 122.688 160.394 122.319 161.516 121.203C164.336 118.401 167.157 115.59 169.978 112.769C170.041 112.704 170.117 112.672 170.206 112.672H179.156C179.248 112.672 179.31 112.716 179.344 112.803C181.196 117.697 184.482 120.791 189.203 122.084C192.812 123.072 197.016 122.669 200.281 120.909C205.046 118.345 207.619 114.203 208 108.484ZM208 148.716V147.531C206.728 131.241 185.4 128.131 179.303 143.328C179.264 143.426 179.192 143.475 179.088 143.475H170.25C170.142 143.475 170.037 143.431 169.959 143.353C167.328 140.714 164.693 138.078 162.053 135.447C160.816 134.216 159.788 133.431 158.15 133.419C154.267 133.39 145.805 133.392 132.766 133.425C132.672 133.425 132.625 133.472 132.625 133.566L132.628 142.644C132.628 142.761 132.685 142.819 132.8 142.819L155.972 142.816C156.082 142.816 156.176 142.854 156.253 142.931C159.109 145.761 161.966 148.589 164.822 151.416C165.809 152.393 167.026 152.871 168.472 152.85C170.107 152.829 173.664 152.834 179.141 152.863C179.245 152.863 179.315 152.912 179.35 153.01C185.084 168.216 207.031 164.935 208 148.716ZM146.228 168.056L154.816 176.638C154.897 176.721 154.913 176.816 154.863 176.922C150.628 185.772 156.288 196.813 166.206 197.944C176.778 199.153 184.794 189.985 182.344 179.722C180.834 173.4 175.875 169.319 169.322 168.685C166.634 168.424 164.102 168.89 161.725 170.081C161.685 170.101 161.64 170.108 161.596 170.101C161.551 170.094 161.51 170.073 161.478 170.041C158.32 166.866 155.16 163.705 152 160.56C150.672 159.238 149.703 158.556 147.922 158.55C142.878 158.536 137.831 158.537 132.781 158.553C132.677 158.553 132.625 158.604 132.625 158.706V167.772C132.625 167.87 132.674 167.919 132.772 167.919H145.894C146.025 167.919 146.136 167.965 146.228 168.056Z" fill="white"/>
</g>
<defs>
<clipPath id="clip0_50_188">
<rect width="256" height="256" fill="white"/>
</clipPath>
</defs>
</svg>
